<?xml version="1.0" encoding="utf-8"?>
<!-- Generator: Adobe Illustrator 24.0.1, SVG Export Plug-In . SVG Version: 6.00 Build 0)  -->
<svg version="1.1" id="Слой_1" xmlns="http://www.w3.org/2000/svg" xmlns:xlink="http://www.w3.org/1999/xlink" x="0px" y="0px"
	 viewBox="0 0 1080 1080" style="enable-background:new 0 0 1080 1080;" xml:space="preserve">
<style type="text/css">
	.st0{fill:#006492;}
	.st1{font-family:'Montserrat-ExtraBold';}
	.st2{font-size:169.4371px;}
	.st3{font-family:'Montserrat-Regular';}
	.st4{font-size:66.2071px;}
	.st5{letter-spacing:13;}
	.st6{fill:#FFCC00;}
</style>
<g>
	<g>
		<g>
			<text transform="matrix(1 0 0 1 178.9858 822.6152)" class="st0 st1 st2">Travel</text>
		</g>
		<g>
			<text transform="matrix(1 0 0 1 352.6353 900.6777)" class="st0 st3 st4 st5">agency</text>
		</g>
	</g>
	<g>
		<circle class="st6" cx="535.56" cy="349.14" r="187.86"/>
		<path class="st0" d="M881.62,504.4c-7.09-69.64-65.91-123.98-137.42-123.98c-8.52,0-16.84,0.81-24.94,2.29
			c-29.7-72.26-100.74-123.15-183.7-123.15s-154.01,50.9-183.7,123.15c-8.09-1.48-16.42-2.29-24.94-2.29
			c-71.51,0-130.33,54.34-137.42,123.98c-36.15,5.81-63.86,36.9-64.38,74.57c-0.59,42.74,35.75,77.71,78.49,77.71h226.92
			c39.84,0,72.14-32.3,72.14-72.14v-31.31l-172.52,49.03c-3.86,1.1-7.69-1.8-7.69-5.81l0,0c0-11.24,5.42-21.79,14.56-28.33
			l44.04-31.52V519.5c0-7.17,5.81-12.98,12.98-12.98c6.7,0,12.15,5.09,12.84,11.6l30.97-22.17v-18.93c0-7.17,5.81-12.98,12.98-12.98
			c7.17,0,12.98,5.81,12.98,12.98v0.35l38.86-27.82v-47.58c0-29,8-57.44,23.13-82.19h0c4.46-7.29,15.05-7.29,19.51,0h0
			c15.12,24.75,23.13,53.19,23.13,82.19v47.58l38.86,27.82v-0.35c0-7.17,5.81-12.98,12.98-12.98s12.98,5.81,12.98,12.98v18.93
			l30.97,22.17c0.69-6.51,6.14-11.6,12.84-11.6c7.17,0,12.98,5.81,12.98,12.98v17.11l44.04,31.52c9.14,6.54,14.56,17.09,14.56,28.33
			l0,0c0,4.01-3.83,6.91-7.69,5.81l-172.52-49.03v31.31c0,39.84,32.3,72.14,72.14,72.14H867.5c42.74,0,79.08-34.97,78.49-77.71
			C945.47,541.3,917.77,510.21,881.62,504.4z"/>
	</g>
</g>
</svg>
