<?xml version="1.0" encoding="utf-8"?>
<!-- Generator: Adobe Illustrator 24.0.1, SVG Export Plug-In . SVG Version: 6.00 Build 0)  -->
<svg version="1.1" id="Слой_1" xmlns="http://www.w3.org/2000/svg" xmlns:xlink="http://www.w3.org/1999/xlink" x="0px" y="0px"
	 viewBox="0 0 1080 1080" style="enable-background:new 0 0 1080 1080;" xml:space="preserve">
<style type="text/css">
	.st0{fill:#006492;}
	.st1{font-family:'Montserrat-ExtraBold';}
	.st2{font-size:169.8266px;}
	.st3{font-family:'Montserrat-Regular';}
	.st4{font-size:66.3593px;}
	.st5{letter-spacing:13;}
	.st6{fill:#FFCC00;}
	.st7{fill:#FFFFFF;}
</style>
<g>
	<g>
		<g>
			<text transform="matrix(1 0 0 1 171.7935 849.2324)" class="st0 st1 st2">Travel</text>
		</g>
		<g>
			<text transform="matrix(1 0 0 1 345.8413 927.4746)" class="st0 st3 st4 st5">agency</text>
		</g>
	</g>
	<g>
		<g>
			<path class="st6" d="M744.81,507.35c-50.94,0-93.95,33.87-107.8,80.31c0-0.01,0-0.02-0.01-0.02c0,0.01,0,0.02-0.01,0.02
				c-13.85-46.44-56.86-80.31-107.8-80.31c-50.03,0-92.34,32.69-106.96,77.85c-0.22,0.81-0.4,1.65-0.64,2.45
				c-0.03-0.1-0.07-0.2-0.1-0.3c-0.03,0.1-0.07,0.2-0.1,0.3c-0.24-0.81-0.42-1.64-0.64-2.45c-14.62-45.16-56.94-77.85-106.96-77.85
				c-13.29,0-26.03,2.32-37.86,6.55c41.27,99.22,139.11,168.99,253.27,168.99c114.19,0,212.04-69.81,253.29-169.06
				C770.7,509.64,758.03,507.35,744.81,507.35z"/>
			<path class="st0" d="M313.78,442.94c50.81,0,93.74,33.69,107.7,79.95c13.97-46.26,56.89-79.95,107.7-79.95
				c50.95,0,93.97,33.88,107.81,80.33c13.85-46.45,56.86-80.33,107.81-80.33c19.69,0,38.19,5.07,54.28,13.96
				c2.78-15.67,4.31-31.76,4.31-48.23c0-151.45-122.77-274.22-274.22-274.22S254.97,257.22,254.97,408.67
				c0,16.5,1.54,32.64,4.33,48.34C275.45,448.06,294.01,442.94,313.78,442.94z"/>
		</g>
		<g>
			<path class="st7" d="M680.67,217.5c6.77,0.68,8.91,9.5,3.22,13.23L454.56,381.19c-41.1,26.96-82.82,30.17-113.46,27.49
				c-6.34-0.56-8.36-8.85-3.05-12.34l245.5-161.07C614.82,214.75,656.67,215.09,680.67,217.5z"/>
			<path class="st7" d="M542.24,270.89l-126.32-11.3c-6.93-0.62-13.86,1.12-19.67,4.93l-10.03,6.58l88.18,44.3L542.24,270.89z"/>
			<path class="st7" d="M556.21,303.86l26.92,41.03c5.19,7.91,6.46,17.77,3.45,26.75l-1.28,3.81l-84.17-48.21L556.21,303.86z"/>
			<polygon class="st7" points="410.12,357.57 363.48,337.09 347.3,347.71 373.65,387.88 			"/>
		</g>
	</g>
</g>
</svg>
