<?xml version="1.0" encoding="utf-8"?>
<!-- Generator: Adobe Illustrator 24.0.1, SVG Export Plug-In . SVG Version: 6.00 Build 0)  -->
<svg version="1.1" id="Слой_1" xmlns="http://www.w3.org/2000/svg" xmlns:xlink="http://www.w3.org/1999/xlink" x="0px" y="0px"
	 viewBox="0 0 1080 1080" style="enable-background:new 0 0 1080 1080;" xml:space="preserve">
<style type="text/css">
	.st0{fill:#FFCC00;}
	.st1{fill:#006492;}
	.st2{font-family:'Montserrat-ExtraBold';}
	.st3{font-size:164.4068px;}
	.st4{font-family:'Montserrat-Regular';}
	.st5{font-size:64.2415px;}
	.st6{letter-spacing:12;}
</style>
<g>
	<g>
		<g>
			<path class="st0" d="M470.58,453.53L260.1,336.21c-4.71-2.62-5.6-9.02-1.79-12.83c10.68-10.68,25.85-15.55,40.75-13.08
				l71.78,11.89l16.25-16.25c6.81-6.81,17.85-6.81,24.66,0h0c6.36,6.36,6.7,16.38,1.17,23.22l50.49,8.36l17.99-17.99
				c6.81-6.81,17.85-6.81,24.66,0c6.81,6.81,6.81,17.85,0,24.66l-0.33,0.33l63.35,10.49l38.84-38.84L489.29,197.55
				c-60.74-60.74-159.21-60.74-219.95,0l0,0c-60.74,60.74-60.74,159.21,0,219.95l118.64,118.64L470.58,453.53z"/>
			<path class="st0" d="M670.4,378.66l-38.84,38.84l10.49,63.35l0.33-0.33c6.81-6.81,17.85-6.81,24.66,0
				c6.81,6.81,6.81,17.85,0,24.66l-17.99,17.99l4.88,29.43l95.2-95.2L670.4,378.66z"/>
			<polygon class="st0" points="533.05,516.01 450.45,598.61 529.19,677.35 589.41,617.12 			"/>
		</g>
		<g>
			<polygon class="st1" points="369.47,397.17 309.24,457.4 387.98,536.14 470.58,453.53 			"/>
			<path class="st1" d="M789.03,197.55L789.03,197.55c-60.74-60.74-159.21-60.74-219.95,0l-135.1,135.1l29.43,4.88l17.99-17.99
				c6.81-6.81,17.85-6.81,24.66,0c6.81,6.81,6.81,17.85,0,24.66l-0.33,0.33l63.35,10.49l45.21-45.21
				c27.55-27.55,62.18-46.97,100.06-56.11c11.16-2.69,21.23,7.37,18.53,18.53c-9.14,37.88-28.56,72.5-56.11,100.06l-45.21,45.21
				l10.49,63.35l0.33-0.33c6.81-6.81,17.85-6.81,24.66,0c6.81,6.81,6.81,17.85,0,24.66l-17.99,17.99l4.88,29.43l135.1-135.1
				C849.77,356.76,849.77,258.29,789.03,197.55z"/>
			<polygon class="st1" points="533.05,516.01 450.45,598.61 529.19,677.35 589.41,617.12 			"/>
		</g>
	</g>
	<g>
		<g>
			<text transform="matrix(1 0 0 1 183.1973 838.373)" class="st1 st2 st3">Travel</text>
		</g>
		<g>
			<text transform="matrix(1 0 0 1 351.688 914.1191)" class="st1 st4 st5 st6">agency</text>
		</g>
	</g>
</g>
</svg>
